Fly_normalized_Motion_pl05
version=1
nRows=10
nColumns=43
inDegrees=yes
endheader
time		pelvis_tilt		pelvis_list		pelvis_rotation		pelvis_tx		pelvis_ty		pelvis_tz		hip_flexion_r		hip_adduction_r		hip_rotation_r		knee_angle_r		ankle_angle_r		subtalar_angle_r		mtp_angle_r		hip_flexion_l		hip_adduction_l		hip_rotation_l		knee_angle_l		ankle_angle_l		subtalar_angle_l		mtp_angle_l		lumbar_extension		lumbar_bending		lumbar_rotation		neck_flexion		neck_lateral_bending		neck_rotation		arm_flex_r		arm_add_r		arm_rot_r		elbow_flex_r		pro_sup_r		wrist_flex_r		wrist_dev_r		hand_finger_flex_r		arm_flex_l		arm_add_l		arm_rot_l		elbow_flex_l		pro_sup_l		wrist_flex_l		wrist_dev_l		hand_finger_flex_l		
1.096439		-1.769719		8.526126		90.768393		0.005820		1.431450		0.748477		23.555733		-5.701258		-12.481749		-28.031353		-26.881750		-4.018851		13.521632		21.717527		-2.710238		-12.374117		-34.262407		-24.007349		-16.154307		20.917959		-45.752430		-1.221348		-2.315321		-29.160648		-0.883306		0.909068		-45.922703		-25.800483		-16.617301		50.134907		90.196381		-21.283620		-2.292639		36.358206		-49.947224		-19.692711		-23.828388		60.239101		108.958533		-21.668718		5.285624		86.555625		
1.100859		-1.781228		8.602068		90.786789		0.005928		1.415999		0.737501		22.932713		-5.674788		-12.722040		-27.142140		-26.965908		-4.097502		13.496843		21.089434		-2.705435		-12.484324		-32.957083		-24.307316		-15.953158		20.995991		-45.016026		-1.305008		-2.351940		-30.387577		-0.887122		0.926603		-48.011189		-25.127951		-17.498185		49.579413		89.623995		-21.402477		-2.004445		36.201048		-52.174934		-19.173812		-24.184628		60.229529		108.662973		-21.799983		5.173977		86.492086		
1.105278		-1.796455		8.718069		90.812717		0.006014		1.400487		0.726618		22.258258		-5.635179		-13.001657		-26.237000		-27.048215		-4.204557		13.488248		20.371083		-2.665962		-12.623590		-31.561462		-24.541263		-15.747918		21.114083		-44.364992		-1.379451		-2.367026		-31.505800		-0.829883		0.900695		-50.081905		-24.393844		-18.450474		49.128186		88.953790		-21.481527		-1.656066		36.056879		-54.300751		-18.699395		-24.494472		60.243938		108.373202		-21.867625		5.001043		86.360746		
1.109697		-1.758015		8.726523		90.838281		0.006090		1.384615		0.715854		21.675067		-5.532049		-13.234406		-25.283154		-27.063080		-4.292915		13.494986		19.731180		-2.659630		-12.745796		-30.025817		-24.640450		-15.604909		21.212408		-43.645972		-1.413960		-2.385578		-32.303088		-0.784203		0.860757		-52.070221		-23.769872		-19.203803		48.761849		88.452057		-21.533345		-1.405955		35.970060		-56.348204		-18.229768		-24.748055		60.319871		108.161014		-21.855507		4.837484		86.265005		
1.114116		-1.734656		9.342614		90.827553		0.006332		1.369715		0.704642		20.336008		-5.423735		-13.657705		-24.198778		-27.176685		-4.330932		13.689808		18.350497		-2.700067		-13.109639		-28.443285		-24.704256		-15.210539		21.764476		-43.515320		-1.471404		-2.281194		-33.435253		-0.718333		0.692027		-54.178327		-22.934228		-20.428901		48.804373		87.471380		-21.310213		-0.745800		35.709743		-58.378621		-17.898133		-25.027795		60.562498		107.656617		-21.515251		4.313771		85.764695		
1.118535		-1.711914		9.581650		90.809646		0.006632		1.353905		0.693715		19.489203		-5.309692		-14.047118		-23.215353		-27.197011		-4.366746		13.828270		17.461788		-2.711630		-13.341620		-26.962015		-24.679513		-14.982277		22.131240		-43.020151		-1.565291		-2.235202		-34.410949		-0.632144		0.661931		-56.139001		-22.229536		-21.314107		48.776962		86.920647		-21.212809		-0.462285		35.544425		-60.353154		-17.498941		-25.414556		60.849051		107.335140		-21.314727		3.993233		85.498003		
1.122955		-1.740793		9.687515		90.815389		0.006846		1.337629		0.682797		18.857173		-5.268909		-14.459562		-22.363141		-27.200631		-4.395830		13.935573		16.779517		-2.653369		-13.523437		-25.593283		-24.603210		-14.774613		22.384508		-42.338844		-1.703882		-2.212434		-35.707848		-0.442717		0.725515		-58.114732		-21.452953		-22.355172		48.880838		86.530064		-21.128824		-0.413061		35.531433		-62.334686		-17.081820		-25.937779		61.325569		107.130866		-21.189191		3.763256		85.429630		
1.127374		-1.741832		9.698039		90.782341		0.007115		1.321080		0.672292		18.322073		-5.158274		-14.791081		-21.423486		-27.114972		-4.378236		14.042373		16.171486		-2.600072		-13.632771		-24.095540		-24.396254		-14.590717		22.598036		-41.693071		-1.833977		-2.218867		-36.334292		-0.381806		0.750427		-59.892144		-20.833519		-23.173020		49.002500		86.249415		-20.981133		-0.331294		35.572618		-64.129911		-16.723733		-26.271018		61.694305		106.988903		-21.055380		3.596113		85.405793		
1.131793		-1.786373		10.702293		90.735540		0.007252		1.306176		0.661194		16.582168		-5.148746		-15.521270		-20.391174		-27.056362		-3.907638		14.817294		14.353204		-2.561371		-14.127356		-22.514893		-23.959216		-13.597072		23.835335		-42.054989		-1.939249		-2.071211		-37.280588		-0.359899		0.645717		-61.793608		-19.846351		-24.963599		49.589818		86.022054		-20.105012		0.361694		35.510027		-65.829684		-16.527179		-26.700615		62.232894		106.663568		-20.397835		3.253860		84.976780		
1.136212		-1.874856		10.906294		90.782002		0.007330		1.289671		0.650764		15.856067		-5.179325		-16.031952		-19.544702		-26.961064		-3.807396		15.222458		13.594787		-2.399570		-14.178866		-21.144366		-23.595903		-13.121736		24.434914		-41.642853		-2.082229		-2.100429		-38.015557		-0.268492		0.663408		-63.441750		-19.015800		-26.215158		49.947964		85.788814		-19.894286		0.404690		35.480256		-67.428156		-16.293291		-27.106896		62.720741		106.587391		-20.306173		3.192618		84.876653		
